HIERARCHY
ROOT Hips
{
    OFFSET   0.000000   0.000000   0.000000
    CHANNELS 6 Xposition Yposition Zposition Zrotation Xrotation Yrotation
    JOINT Chest
    {
        OFFSET   0.000000   8.007230   0.000000
        CHANNELS 3 Zrotation Xrotation Yrotation
        JOINT Chest2
        {
            OFFSET   0.000000  22.077100   0.000000
            CHANNELS 3 Zrotation Xrotation Yrotation
            JOINT Neck
            {
                OFFSET   0.000000  23.255100   0.000000
                CHANNELS 3 Zrotation Xrotation Yrotation
                JOINT Head
                {
                    OFFSET   0.000000  14.370100   1.956600
                    CHANNELS 3 Zrotation Xrotation Yrotation
                    End Site
                    {
                        OFFSET   0.000000  19.566000   0.000000
                    }
                }
            }
            JOINT LeftCollar
            {
                OFFSET   3.911900  19.017000  -0.467063
                CHANNELS 3 Zrotation Xrotation Yrotation
                JOINT LeftShoulder
                {
                    OFFSET  10.383700   0.000000   0.000000
                    CHANNELS 3 Zrotation Xrotation Yrotation
                    JOINT LeftElbow
                    {
                        OFFSET  26.662100   0.001193   0.000980
                        CHANNELS 3 Zrotation Xrotation Yrotation
                        JOINT LeftWrist
                        {
                            OFFSET  28.869000  -0.000059  -0.000082
                            CHANNELS 3 Zrotation Xrotation Yrotation
                            JOINT LeftFinger0
                            {
                                OFFSET   2.044650  -2.323450   3.252850
                                CHANNELS 3 Zrotation Xrotation Yrotation
                                JOINT LeftFinger01
                                {
                                    OFFSET   3.088130   0.000000   0.000000
                                    CHANNELS 3 Zrotation Xrotation Yrotation
                                    JOINT LeftFinger02
                                    {
                                        OFFSET   2.639460   0.000000   0.000000
                                        CHANNELS 3 Zrotation Xrotation Yrotation
                                        End Site
                                        {
                                            OFFSET   2.582190   0.000000   0.000000
                                        }
                                    }
                                }
                            }
                            JOINT LeftFinger1
                            {
                                OFFSET   8.364480   0.000000   3.252850
                                CHANNELS 3 Zrotation Xrotation Yrotation
                                JOINT LeftFinger11
                                {
                                    OFFSET   4.646930   0.000000   0.000000
                                    CHANNELS 3 Zrotation Xrotation Yrotation
                                    JOINT LeftFinger12
                                    {
                                        OFFSET   2.323470   0.000000   0.000000
                                        CHANNELS 3 Zrotation Xrotation Yrotation
                                        End Site
                                        {
                                            OFFSET   2.273050   0.000000   0.000000
                                        }
                                    }
                                }
                            }
                            JOINT LeftFinger2
                            {
                                OFFSET   8.364490   0.000016   1.078090
                                CHANNELS 3 Zrotation Xrotation Yrotation
                                JOINT LeftFinger21
                                {
                                    OFFSET   5.111610   0.000000   0.000000
                                    CHANNELS 3 Zrotation Xrotation Yrotation
                                    JOINT LeftFinger22
                                    {
                                        OFFSET   2.788150   0.000016   0.000000
                                        CHANNELS 3 Zrotation Xrotation Yrotation
                                        End Site
                                        {
                                            OFFSET   2.727660   0.000000   0.000000
                                        }
                                    }
                                }
                            }
                            JOINT LeftFinger3
                            {
                                OFFSET   7.899780   0.000015  -1.078090
                                CHANNELS 3 Zrotation Xrotation Yrotation
                                JOINT LeftFinger31
                                {
                                    OFFSET   4.646930   0.000000   0.000000
                                    CHANNELS 3 Zrotation Xrotation Yrotation
                                    JOINT LeftFinger32
                                    {
                                        OFFSET   2.323470   0.000000   0.000000
                                        CHANNELS 3 Zrotation Xrotation Yrotation
                                        End Site
                                        {
                                            OFFSET   2.273050   0.000000   0.000000
                                        }
                                    }
                                }
                            }
                            JOINT LeftFinger4
                            {
                                OFFSET   7.435090   0.000000  -3.252850
                                CHANNELS 3 Zrotation Xrotation Yrotation
                                JOINT LeftFinger41
                                {
                                    OFFSET   3.717550   0.000000   0.000000
                                    CHANNELS 3 Zrotation Xrotation Yrotation
                                    JOINT LeftFinger42
                                    {
                                        OFFSET   1.858770   0.000000   0.000000
                                        CHANNELS 3 Zrotation Xrotation Yrotation
                                        End Site
                                        {
                                            OFFSET   1.818440   0.000000   0.000000
                                        }
                                    }
                                }
                            }
                        }
                    }
                }
            }
            JOINT RightCollar
            {
                OFFSET  -3.911910  19.017000  -0.467062
                CHANNELS 3 Zrotation Xrotation Yrotation
                JOINT RightShoulder
                {
                    OFFSET -10.383700   0.000014   0.000000
                    CHANNELS 3 Zrotation Xrotation Yrotation
                    JOINT RightElbow
                    {
                        OFFSET -26.662100   0.001225   0.001091
                        CHANNELS 3 Zrotation Xrotation Yrotation
                        JOINT RightWrist
                        {
                            OFFSET -28.869000  -0.000020  -0.000085
                            CHANNELS 3 Zrotation Xrotation Yrotation
                            JOINT RightFinger0
                            {
                                OFFSET  -2.044650  -2.323490   3.252850
                                CHANNELS 3 Zrotation Xrotation Yrotation
                                JOINT RightFinger01
                                {
                                    OFFSET  -3.088130   0.000000   0.000000
                                    CHANNELS 3 Zrotation Xrotation Yrotation
                                    JOINT RightFinger02
                                    {
                                        OFFSET  -2.639460   0.000000   0.000000
                                        CHANNELS 3 Zrotation Xrotation Yrotation
                                        End Site
                                        {
                                            OFFSET  -2.582190   0.000000   0.000000
                                        }
                                    }
                                }
                            }
                            JOINT RightFinger1
                            {
                                OFFSET  -8.364480   0.000000   3.252850
                                CHANNELS 3 Zrotation Xrotation Yrotation
                                JOINT RightFinger11
                                {
                                    OFFSET  -4.646930   0.000000   0.000000
                                    CHANNELS 3 Zrotation Xrotation Yrotation
                                    JOINT RightFinger12
                                    {
                                        OFFSET  -2.323470   0.000000   0.000000
                                        CHANNELS 3 Zrotation Xrotation Yrotation
                                        End Site
                                        {
                                            OFFSET  -2.273050   0.000000   0.000000
                                        }
                                    }
                                }
                            }
                            JOINT RightFinger2
                            {
                                OFFSET  -8.364480   0.000000   1.078090
                                CHANNELS 3 Zrotation Xrotation Yrotation
                                JOINT RightFinger21
                                {
                                    OFFSET  -5.111620   0.000000   0.000000
                                    CHANNELS 3 Zrotation Xrotation Yrotation
                                    JOINT RightFinger22
                                    {
                                        OFFSET  -2.788160   0.000000   0.000000
                                        CHANNELS 3 Zrotation Xrotation Yrotation
                                        End Site
                                        {
                                            OFFSET  -2.727660   0.000000   0.000000
                                        }
                                    }
                                }
                            }
                            JOINT RightFinger3
                            {
                                OFFSET  -7.899780   0.000000  -1.078090
                                CHANNELS 3 Zrotation Xrotation Yrotation
                                JOINT RightFinger31
                                {
                                    OFFSET  -4.646930   0.000000   0.000000
                                    CHANNELS 3 Zrotation Xrotation Yrotation
                                    JOINT RightFinger32
                                    {
                                        OFFSET  -2.323470   0.000000   0.000000
                                        CHANNELS 3 Zrotation Xrotation Yrotation
                                        End Site
                                        {
                                            OFFSET  -2.273050   0.000000   0.000000
                                        }
                                    }
                                }
                            }
                            JOINT RightFinger4
                            {
                                OFFSET  -7.435090   0.000000  -3.252850
                                CHANNELS 3 Zrotation Xrotation Yrotation
                                JOINT RightFinger41
                                {
                                    OFFSET  -3.717550   0.000000   0.000000
                                    CHANNELS 3 Zrotation Xrotation Yrotation
                                    JOINT RightFinger42
                                    {
                                        OFFSET  -1.858760   0.000000   0.000000
                                        CHANNELS 3 Zrotation Xrotation Yrotation
                                        End Site
                                        {
                                            OFFSET  -1.818440   0.000000   0.000000
                                        }
                                    }
                                }
                            }
                        }
                    }
                }
            }
        }
    }
    JOINT LeftHip
    {
        OFFSET   9.783030   0.000000   0.000000
        CHANNELS 3 Zrotation Xrotation Yrotation
        JOINT LeftKnee
        {
            OFFSET   0.000063 -41.789100   0.000608
            CHANNELS 3 Zrotation Xrotation Yrotation
            JOINT LeftAnkle
            {
                OFFSET   0.000048 -41.133200  -0.000184
                CHANNELS 3 Zrotation Xrotation Yrotation
                JOINT LeftToe
                {
                    OFFSET   0.000000  -6.358960  14.674500
                    CHANNELS 3 Zrotation Xrotation Yrotation
                    End Site
                    {
                        OFFSET   0.000000   0.000000   3.913200
                    }
                }
            }
        }
    }
    JOINT RightHip
    {
        OFFSET  -9.783030   0.000000   0.000000
        CHANNELS 3 Zrotation Xrotation Yrotation
        JOINT RightKnee
        {
            OFFSET   0.000071 -41.789100   0.001239
            CHANNELS 3 Zrotation Xrotation Yrotation
            JOINT RightAnkle
            {
                OFFSET   0.000037 -41.133200  -0.000166
                CHANNELS 3 Zrotation Xrotation Yrotation
                JOINT RightToe
                {
                    OFFSET   0.000000  -6.358960  14.674500
                    CHANNELS 3 Zrotation Xrotation Yrotation
                    End Site
                    {
                        OFFSET   0.000000   0.000000   3.913200
                    }
                }
            }
        }
    }
}
MOTION
Frames: 4
Frame Time:   0.016667
 -0.027703  89.628400   1.336520  -2.140310  -6.935700  -0.954094   0.574756   3.796580  -0.163632   1.164250   7.591300  -0.366733   1.669120   0.874723  -0.019388   2.745220   1.769140   1.433130  -3.079480  -2.237640   3.861690 -74.996700  14.648600   0.882092  -1.910880  -3.143670 -15.045000  16.265300  -6.761640   5.896530  36.172500  28.146500 -54.213500 -34.258800  -0.005297  -0.003547 -12.140700   0.002418  -0.036598 -31.867400   7.405680 -11.713700 -26.695700   0.017074  -0.002333 -18.687000   0.011998   0.001392 -28.730900   0.142398  -0.240536 -39.516400   0.032546   0.007773 -26.317900   0.017740   0.013550 -28.712500   0.142319  -0.240573 -39.146100   0.016077   0.001440 -26.071300   0.009864   0.004313 -33.945000   0.165572  -0.227538 -50.917900   0.011368   0.006028 -33.911300   0.004482   0.004979   7.806750   1.452490   4.515200  69.901200  14.239600  -4.847260  -0.255279  -5.318040  10.711500 -10.535500  -6.281420  -1.060320 -36.834100  28.323500  61.025300  31.202900   0.010064  -0.006054  10.601700  -0.000156  -0.001456  26.768000   8.287380  15.936800  22.853000  -0.000723   0.000533  15.997100  -0.000880   0.007013  27.302400   3.860570   7.433560  29.431100  -0.001544  -0.002120  19.601100  -0.000266  -0.000901  27.011400   3.079610   6.017450  27.691000  -0.000806   0.000832  18.454800   0.001209   0.000684  33.413500   0.592309   0.897706  50.124000   0.000375  -0.010332  33.384700   0.000545  -0.003933   1.571930   8.295540   1.392820   1.020200   0.085706   4.676880  -1.968030  -2.373940  -2.668800   0.000000   0.000000   0.000000   3.433890   7.414780   1.260070  -1.139820   2.381150  -5.164680  -0.637061  -3.914270  -0.877180   0.000000   0.000000  -0.000000
 -0.032073  89.628400   1.327680  -2.138100  -6.941430  -0.935980   0.574665   3.799220  -0.164795   1.164160   7.596590  -0.369091   1.669120   0.865388  -0.019387   2.745110   1.750300   1.428780  -3.078780  -2.245910   3.865260 -74.980800  14.679400   0.865454  -1.895520  -3.163560 -15.042900  16.280800  -6.778090   5.905100  36.166600  28.150900 -54.231000 -34.268000  -0.005315  -0.003578 -12.140700   0.002421  -0.041444 -31.883200   7.420580 -11.728200 -26.710300   0.025968  -0.013076 -18.697200   0.020049  -0.004780 -28.730900   0.142398  -0.250181 -39.549400   0.055431  -0.006216 -26.339900   0.036134   0.009474 -28.712500   0.142319  -0.250220 -39.171300   0.027363  -0.007930 -26.088000   0.018348   0.000196 -33.957000   0.165572  -0.236622 -50.936000   0.026626   0.001032 -33.923400   0.015026   0.005220   7.808750   1.445580   4.516850  69.904300  14.252700  -4.853840  -0.254592  -5.328710  10.701100 -10.528900  -6.274600  -1.067450 -36.828500  28.317100  61.036700  31.202900   0.010064  -0.006052  10.601300  -0.000161  -0.001455  26.767300   8.287180  15.941500  22.852900  -0.000726   0.000533  15.997000  -0.000879   0.007016  27.300500   3.866720   7.445050  29.436500  -0.001544  -0.002120  19.604700  -0.000269  -0.000900  27.010100   3.085660   6.028750  27.700000  -0.000807   0.000837  18.454800   0.001208   0.000687  33.413500   0.592409   0.897873  50.124000   0.000377  -0.010330  33.384700   0.000545  -0.003932   1.570860   8.308260   1.393350   1.019010   0.052303   4.670850  -1.970970  -2.345240  -2.675440  -0.000000   0.000000   0.000000   3.438540   7.408880   1.257910  -1.144580   2.395680  -5.164820  -0.638247  -3.919510  -0.894292   0.000000   0.000000   0.000000
 -0.039862  89.628300   1.312850  -2.134830  -6.952760  -0.908762   0.574494   3.804750  -0.167387   1.164020   7.607650  -0.374339   1.669110   0.847978  -0.019379   2.745400   1.715150   1.424410  -3.077410  -2.259570   3.876370 -74.953100  14.730400   0.839638  -1.871970  -3.191960 -15.040900  16.299800  -6.803560   5.917430  36.160800  28.155300 -54.248500 -34.281400  -0.005333  -0.003609 -12.140700   0.002424  -0.046290 -31.904600   7.435470 -11.742700 -26.730200   0.034863  -0.028803 -18.711100   0.028099  -0.014289 -28.730900   0.142398  -0.259826 -39.592500   0.078317  -0.026558 -26.368600   0.054528   0.001885 -28.712500   0.142318  -0.259868 -39.208200   0.039318  -0.022289 -26.112600   0.029222  -0.006714 -33.975100   0.165571  -0.245706 -50.963100   0.048318  -0.007633 -33.941400   0.030556   0.005461   7.814540   1.428120   4.521230  69.908900  14.281000  -4.860740  -0.254814  -5.339540  10.680800 -10.522800  -6.263420  -1.079880 -36.819700  28.309600  61.055700  31.202900   0.010064  -0.006040  10.601000  -0.000173  -0.001454  26.766500   8.286990  15.946200  22.852900  -0.000730   0.000533  15.997000  -0.000878   0.007019  27.298600   3.872860   7.456540  29.445000  -0.001546  -0.002120  19.610400  -0.000272  -0.000895  27.008800   3.091700   6.040040  27.710000  -0.000811   0.000848  18.454800   0.001208   0.000695  33.413400   0.592510   0.898039  50.124000   0.000381  -0.010321  33.384600   0.000548  -0.003927   1.569800   8.320970   1.393870   1.017820   0.018901   4.659920  -1.977570  -2.316550  -2.683560   0.000000   0.000000  -0.000000   3.445200   7.400770   1.255740  -1.148550   2.418890  -5.165000  -0.640139  -3.927050  -0.922361   0.000000   0.000000   0.000000
 -0.046890  89.628300   1.300940  -2.133020  -6.965490  -0.892695   0.574277   3.811310  -0.170553   1.163820   7.620720  -0.380746   1.672540   0.830568  -0.019361   2.750480   1.680040   1.428940  -3.071370  -2.269700   3.896510 -74.927900  14.770100   0.824233  -1.857730  -3.201730 -15.049200  16.303600  -6.819020   5.921250  36.162000  28.159500 -54.237600 -34.286800  -0.005327  -0.003580 -12.142400   0.002405  -0.037340 -31.911700   7.432600 -11.736400 -26.735800   0.033171  -0.037991 -18.715000   0.027668  -0.020588 -28.730900   0.139417  -0.254382 -39.602400   0.073435  -0.037983 -26.375200   0.053498  -0.008093 -28.712500   0.139340  -0.254422 -39.226900   0.040099  -0.032875 -26.125100   0.032010  -0.013769 -33.985300   0.162136  -0.240537 -50.978500   0.058798  -0.017315 -33.951600   0.039958   0.005401   7.823380   1.404390   4.527120  69.912100  14.315200  -4.861370  -0.255521  -5.339820  10.664400 -10.531000  -6.258450  -1.090280 -36.814800  28.308900  61.066500  31.205800   0.010062  -0.006005  10.602700  -0.000192  -0.001465  26.768100   8.283770  15.942000  22.852900  -0.000728   0.000529  15.997000  -0.000878   0.007020  27.298800   3.871510   7.453840  29.448000  -0.001551  -0.002122  19.612400  -0.000271  -0.000889  27.008900   3.091200   6.039230  27.710700  -0.000821   0.000865  18.454900   0.001208   0.000711  33.413500   0.592485   0.897997  50.124500   0.000384  -0.010303  33.384700   0.000553  -0.003920   1.571580   8.305750   1.393820   1.018600   0.052394   4.648290  -1.986320  -2.325090  -2.685290  -0.000000   0.000000   0.000000   3.445980   7.398330   1.262840  -1.145310   2.434580  -5.164800  -0.641446  -3.930240  -0.944688  -0.000000   0.000000   0.000000
